<svg width="720" height="1021" viewBox="0 0 720 1021" fill="none" xmlns="http://www.w3.org/2000/svg">
<g clip-path="url(#clip0_309_19706)">
<rect width="720" height="1021" fill="#CB9E4B"/>
<g opacity="0.24">
<line x1="-1348" y1="596.626" x2="767.012" y2="596.626" stroke="white" stroke-width="1.76398"/>
<line x1="-1348" y1="145.047" x2="767.012" y2="145.047" stroke="white" stroke-width="1.76398"/>
<line x1="-1348" y1="370.835" x2="767.012" y2="370.835" stroke="white" stroke-width="1.76398"/>
<line x1="-1348" y1="822.414" x2="767.012" y2="822.414" stroke="white" stroke-width="1.76398"/>
<line x1="-1348" y1="483.731" x2="767.012" y2="483.731" stroke="white" stroke-width="1.76398"/>
<line x1="-1348" y1="935.31" x2="767.012" y2="935.31" stroke="white" stroke-width="1.76398"/>
<line x1="-1348" y1="32.1516" x2="767.012" y2="32.1516" stroke="white" stroke-width="1.76398"/>
<line x1="-1348" y1="257.94" x2="767.012" y2="257.94" stroke="white" stroke-width="1.76398"/>
<line x1="-1348" y1="709.521" x2="767.012" y2="709.521" stroke="white" stroke-width="1.76398"/>
<line x1="72.8839" y1="-346.222" x2="72.8839" y2="1287.22" stroke="white" stroke-width="1.76398"/>
<line x1="524.466" y1="-346.222" x2="524.466" y2="1287.22" stroke="white" stroke-width="1.76398"/>
<line x1="298.677" y1="-346.223" x2="298.677" y2="1287.22" stroke="white" stroke-width="1.76398"/>
<line x1="185.788" y1="-346.222" x2="185.788" y2="1287.22" stroke="white" stroke-width="1.76398"/>
<line x1="637.355" y1="-346.222" x2="637.355" y2="1287.22" stroke="white" stroke-width="1.76398"/>
<line x1="411.569" y1="-346.222" x2="411.569" y2="1287.22" stroke="white" stroke-width="1.76398"/>
</g>
</g>
<defs>
<clipPath id="clip0_309_19706">
<rect width="720" height="1021" fill="white"/>
</clipPath>
</defs>
</svg>
