<svg width="129" height="30" viewBox="0 0 129 30" fill="none" xmlns="http://www.w3.org/2000/svg">
<g clip-path="url(#clip0_56_1995)">
<path fill-rule="evenodd" clip-rule="evenodd" d="M10.9943 20.5227C10.0224 20.5227 9.09021 20.1366 8.40293 19.4493C7.71565 18.7621 7.32955 17.8299 7.32955 16.858V0H0V16.858C0 22.9298 4.92252 27.8523 10.9943 27.8523H19.0568V20.5227H10.9943ZM32.983 7.32955C32.1167 7.32955 31.2589 7.50017 30.4585 7.83168C29.6582 8.16319 28.931 8.64909 28.3185 9.26164C27.7059 9.87419 27.22 10.6014 26.8885 11.4017C26.557 12.2021 26.3864 13.0599 26.3864 13.9261C26.3864 14.7924 26.557 15.6502 26.8885 16.4505C27.22 17.2509 27.7059 17.9781 28.3185 18.5906C28.931 19.2032 29.6582 19.6891 30.4585 20.0206C31.2589 20.3521 32.1167 20.5227 32.983 20.5227C34.7325 20.5227 36.4103 19.8277 37.6474 18.5906C38.8845 17.3535 39.5795 15.6757 39.5795 13.9261C39.5795 12.1766 38.8845 10.4987 37.6474 9.26164C36.4103 8.02454 34.7325 7.32955 32.983 7.32955ZM19.0568 13.9261C19.0568 6.23524 25.2921 0 32.983 0C40.6738 0 46.9091 6.23524 46.9091 13.9261C46.9091 21.617 40.6738 27.8523 32.983 27.8523C25.2921 27.8523 19.0568 21.617 19.0568 13.9261ZM112.142 7.32955C110.393 7.32955 108.715 8.02454 107.478 9.26164C106.24 10.4987 105.545 12.1766 105.545 13.9261C105.545 15.6757 106.24 17.3535 107.478 18.5906C108.715 19.8277 110.393 20.5227 112.142 20.5227C113.892 20.5227 115.569 19.8277 116.807 18.5906C118.044 17.3535 118.739 15.6757 118.739 13.9261C118.739 12.1766 118.044 10.4987 116.807 9.26164C115.569 8.02454 113.892 7.32955 112.142 7.32955ZM98.2159 13.9261C98.2159 6.23524 104.451 0 112.142 0C119.833 0 126.068 6.23524 126.068 13.9261C126.068 21.617 119.833 27.8523 112.142 27.8523C104.451 27.8523 98.2159 21.617 98.2159 13.9261ZM62.3011 0C54.6102 0 48.375 6.23524 48.375 13.9261C48.375 21.617 54.6102 27.8523 62.3011 27.8523H82.8239C84.2671 27.8523 85.6589 27.6324 86.968 27.2249L90.8864 29.3182L95.1141 21.3993C96.188 19.3835 96.7498 17.1345 96.75 14.8504V13.9261C96.75 6.23524 90.5148 0 82.8239 0H62.3011ZM89.4205 13.9261C89.4205 12.1766 88.7255 10.4987 87.4884 9.26164C86.2513 8.02454 84.5734 7.32955 82.8239 7.32955H62.3011C61.4349 7.32955 60.5771 7.50017 59.7767 7.83168C58.9764 8.16319 58.2492 8.64909 57.6366 9.26164C57.0241 9.87419 56.5382 10.6014 56.2067 11.4017C55.8752 12.2021 55.7045 13.0599 55.7045 13.9261C55.7045 14.7924 55.8752 15.6502 56.2067 16.4505C56.5382 17.2509 57.0241 17.9781 57.6366 18.5906C58.2492 19.2032 58.9764 19.6891 59.7767 20.0206C60.5771 20.3521 61.4349 20.5227 62.3011 20.5227H82.8239C84.5645 20.5228 86.2347 19.8348 87.4703 18.6088C88.7059 17.3828 89.4069 15.7181 89.4205 13.9774V13.9261Z" fill="white"/>
<path d="M129 1.83239C129 2.31837 128.807 2.78444 128.463 3.12808C128.12 3.47172 127.654 3.66477 127.168 3.66477C126.682 3.66477 126.216 3.47172 125.872 3.12808C125.528 2.78444 125.335 2.31837 125.335 1.83239C125.335 1.34641 125.528 0.880333 125.872 0.536694C126.216 0.193054 126.682 0 127.168 0C127.654 0 128.12 0.193054 128.463 0.536694C128.807 0.880333 129 1.34641 129 1.83239Z" fill="white"/>
</g>
<defs>
<clipPath id="clip0_56_1995">
<rect width="129" height="29.3182" fill="white"/>
</clipPath>
</defs>
</svg>
