<svg width="136" height="33" viewBox="0 0 136 33" fill="none" xmlns="http://www.w3.org/2000/svg">
<g clip-path="url(#clip0_56_2000)">
<path fill-rule="evenodd" clip-rule="evenodd" d="M8.05925 2.01184V32.1894H0V2.01184H8.05925Z" fill="white"/>
<path fill-rule="evenodd" clip-rule="evenodd" d="M12.0889 2.01184H29.2148C34.7786 2.01184 39.2889 6.51548 39.2889 12.071C39.2889 17.6266 34.7786 22.1302 29.2148 22.1302H20.1481V32.1894H12.0889V2.01184ZM20.1481 14.0828H29.2148C30.3276 14.0828 31.2296 13.1821 31.2296 12.071C31.2296 10.9599 30.3276 10.0592 29.2148 10.0592H20.1481V14.0828Z" fill="white"/>
<path fill-rule="evenodd" clip-rule="evenodd" d="M69.5112 2.01184V17.6036C69.5112 21.2146 72.4428 24.142 76.0593 24.142C79.6757 24.142 82.6075 21.2146 82.6075 17.6036V2.01184H90.667V17.6036C90.667 25.6591 84.1269 32.1894 76.0593 32.1894C67.9918 32.1894 61.4519 25.6591 61.4519 17.6036V2.01184H69.5112Z" fill="white"/>
<path fill-rule="evenodd" clip-rule="evenodd" d="M42.3112 16.0947C42.3112 8.31693 48.6256 2.01184 56.4149 2.01184H58.4297V10.0592H56.4149C53.0766 10.0592 50.3704 12.7614 50.3704 16.0947V17.1006C50.3704 25.4339 43.605 32.1894 35.2593 32.1894H34.252V24.142H35.2593C39.154 24.142 42.3112 20.9895 42.3112 17.1006V16.0947Z" fill="white"/>
<path d="M136 3.01775C136 4.68441 134.647 6.0355 132.977 6.0355C131.308 6.0355 129.956 4.68441 129.956 3.01775C129.956 1.35109 131.308 0 132.977 0C134.647 0 136 1.35109 136 3.01775Z" fill="white"/>
<path d="M99.3202 32.1893L103.166 16.1092L106.025 25.7831C107.73 31.5529 115.915 31.5529 117.62 25.7831L120.478 16.1092L124.324 32.1893H132.61L126.563 6.90417C125.125 0.891161 116.639 0.668525 114.886 6.59791L111.823 16.9664L108.758 6.59792C107.006 0.66856 98.5195 0.891129 97.0814 6.90416L91.0347 32.1893H99.3202Z" fill="white"/>
</g>
<defs>
<clipPath id="clip0_56_2000">
<rect width="136" height="32.1894" fill="white"/>
</clipPath>
</defs>
</svg>
