<svg width="24" height="24" viewBox="0 0 24 24" fill="none" xmlns="http://www.w3.org/2000/svg">
<path fill-rule="evenodd" clip-rule="evenodd" d="M12 13.8C11.7348 13.8 11.4804 13.6946 11.2929 13.5071C11.1054 13.3196 11 13.0652 11 12.8V7.79999C11 7.53477 11.1054 7.28042 11.2929 7.09288C11.4804 6.90534 11.7348 6.79999 12 6.79999C12.2652 6.79999 12.5196 6.90534 12.7071 7.09288C12.8946 7.28042 13 7.53477 13 7.79999V12.8C13 13.0652 12.8946 13.3196 12.7071 13.5071C12.5196 13.6946 12.2652 13.8 12 13.8Z" fill="#CB9E4B"/>
<path d="M10.9473 15.958C10.9473 15.6788 11.0582 15.4109 11.2557 15.2134C11.4532 15.016 11.721 14.905 12.0003 14.905C12.2795 14.905 12.5474 15.016 12.7448 15.2134C12.9423 15.4109 13.0533 15.6788 13.0533 15.958C13.0533 16.2373 12.9423 16.5051 12.7448 16.7026C12.5474 16.9001 12.2795 17.011 12.0003 17.011C11.721 17.011 11.4532 16.9001 11.2557 16.7026C11.0582 16.5051 10.9473 16.2373 10.9473 15.958Z" fill="#CB9E4B"/>
<path fill-rule="evenodd" clip-rule="evenodd" d="M15.6075 4.64201L21.4835 15.362C22.9955 18.121 21.0105 21.5 17.8765 21.5H6.12448C2.99048 21.5 1.00448 18.12 2.51748 15.361L8.39348 4.64101C9.95948 1.78601 14.0415 1.78601 15.6075 4.64101V4.64201ZM13.8035 5.64201C13.0215 4.21301 10.9795 4.21301 10.1975 5.64201L4.32048 16.36C3.56348 17.74 4.55648 19.429 6.12348 19.429H17.8755C19.4425 19.429 20.4355 17.739 19.6785 16.359L13.8035 5.64201Z" fill="#CB9E4B"/>
</svg>
