<svg width="18" height="18" viewBox="0 0 18 18" fill="none" xmlns="http://www.w3.org/2000/svg">
<path fill-rule="evenodd" clip-rule="evenodd" d="M8.74822 6.0144C8.02317 6.0144 7.32781 6.30243 6.81512 6.81512C6.30243 7.32781 6.0144 8.02317 6.0144 8.74822C6.0144 9.47328 6.30243 10.1686 6.81512 10.6813C7.32781 11.194 8.02317 11.482 8.74822 11.482C9.47328 11.482 10.1686 11.194 10.6813 10.6813C11.194 10.1686 11.482 9.47328 11.482 8.74822C11.482 8.02317 11.194 7.32781 10.6813 6.81512C10.1686 6.30243 9.47328 6.0144 8.74822 6.0144ZM7.10793 8.74822C7.10793 8.31319 7.28075 7.89598 7.58836 7.58836C7.89598 7.28075 8.31319 7.10793 8.74822 7.10793C9.18326 7.10793 9.60047 7.28075 9.90808 7.58836C10.2157 7.89598 10.3885 8.31319 10.3885 8.74822C10.3885 9.18326 10.2157 9.60047 9.90808 9.90808C9.60047 10.2157 9.18326 10.3885 8.74822 10.3885C8.31319 10.3885 7.89598 10.2157 7.58836 9.90808C7.28075 9.60047 7.10793 9.18326 7.10793 8.74822Z" fill="#888888"/>
<path fill-rule="evenodd" clip-rule="evenodd" d="M8.74833 2.36932C5.45754 2.36932 3.24059 4.34059 1.95387 6.01223L1.93127 6.04212C1.63967 6.42048 1.37212 6.76822 1.19059 7.17939C0.995943 7.62044 0.911377 8.10087 0.911377 8.74823C0.911377 9.3956 0.995943 9.87603 1.19059 10.3171C1.37285 10.7282 1.6404 11.0767 1.93127 11.4544L1.9546 11.4842C3.24059 13.1559 5.45754 15.1271 8.74833 15.1271C12.0391 15.1271 14.2561 13.1559 15.5428 11.4842L15.5654 11.4544C15.857 11.0767 16.1245 10.7282 16.3061 10.3171C16.5007 9.87603 16.5853 9.3956 16.5853 8.74823C16.5853 8.10087 16.5007 7.62044 16.3061 7.17939C16.1238 6.76822 15.8563 6.42048 15.5654 6.04212L15.542 6.01223C14.2561 4.34059 12.0391 2.36932 8.74833 2.36932ZM2.82141 6.67928C4.00825 5.13595 5.9416 3.46285 8.74833 3.46285C11.555 3.46285 13.4877 5.13595 14.6752 6.67928C14.996 7.09482 15.1826 7.34269 15.3058 7.62117C15.421 7.88216 15.4917 8.20074 15.4917 8.74823C15.4917 9.29573 15.421 9.61431 15.3058 9.8753C15.1826 10.1538 14.9953 10.4016 14.676 10.8172C13.4869 12.3605 11.555 14.0336 8.74833 14.0336C5.9416 14.0336 4.00898 12.3605 2.82141 10.8172C2.50064 10.4016 2.31401 10.1538 2.1908 9.8753C2.07562 9.61431 2.0049 9.29573 2.0049 8.74823C2.0049 8.20074 2.07562 7.88216 2.1908 7.62117C2.31401 7.34269 2.5021 7.09482 2.82141 6.67928Z" fill="#888888"/>
</svg>
