<svg width="23" height="23" viewBox="0 0 23 23" fill="none" xmlns="http://www.w3.org/2000/svg">
<path d="M0.611857 7.85771C0.771286 9.43829 2.13757 10.5869 3.72329 10.6743C6.13871 10.8063 8.64329 10.952 11.2147 10.952C13.7861 10.952 16.2907 10.8063 18.7061 10.6743C20.2919 10.5886 21.6581 9.43829 21.8176 7.85771C21.9667 6.40057 21.9667 5.05143 21.8176 3.59429C21.6581 2.01371 20.2919 0.863429 18.7044 0.776C16.2924 0.644 13.7861 0.5 11.2147 0.5C8.64329 0.5 6.13871 0.644 3.72329 0.776C2.13757 0.863429 0.771286 2.01371 0.611857 3.59429C0.462714 5.05143 0.462714 6.39886 0.611857 7.85771Z" stroke="#CB9E4B" stroke-linecap="round" stroke-linejoin="round"/>
<path d="M8.73561 6.34571L10.539 8.20399C11.3859 5.76799 12.0939 4.69828 13.6933 3.24628M8.96361 21.9286C8.74021 21.0302 8.22266 20.2325 7.49338 19.6623C6.76409 19.0922 5.86502 18.7825 4.93932 18.7825C4.01363 18.7825 3.11456 19.0922 2.38527 19.6623C1.65599 20.2325 1.13844 21.0302 0.915039 21.9286M21.5139 21.9286C21.2918 21.0291 20.7748 20.2299 20.0453 19.6587C19.3159 19.0875 18.4161 18.7771 17.4896 18.7771C16.5631 18.7771 15.6633 19.0875 14.9339 19.6587C14.2045 20.2299 13.6874 21.0291 13.4653 21.9286M4.94018 17.4371C6.31161 17.4371 7.08304 16.6657 7.08304 15.2943C7.08304 13.9228 6.31161 13.1514 4.94018 13.1514C3.56875 13.1514 2.79732 13.9228 2.79732 15.2943C2.79732 16.6657 3.56875 17.4371 4.94018 17.4371ZM17.4888 17.4371C18.8602 17.4371 19.6316 16.6657 19.6316 15.2943C19.6316 13.9228 18.8602 13.1514 17.4888 13.1514C16.1173 13.1514 15.3459 13.9228 15.3459 15.2943C15.3459 16.6657 16.1173 17.4371 17.4888 17.4371Z" stroke="#CB9E4B" stroke-width="1.5" stroke-linecap="round" stroke-linejoin="round"/>
</svg>
