<svg width="19" height="19" viewBox="0 0 19 19" fill="none" xmlns="http://www.w3.org/2000/svg">
<path d="M9.27271 4.97636V7.54955" stroke="#CB9E4B" stroke-width="1.15909" stroke-miterlimit="10" stroke-linecap="round"/>
<path d="M9.28821 1.54546C6.44457 1.54546 4.14184 3.84818 4.14184 6.69182V8.31455C4.14184 8.84 3.92548 9.62818 3.65503 10.0764L2.67366 11.7145C2.07094 12.7268 2.48821 13.855 3.60094 14.2259C7.29457 15.4545 11.2896 15.4545 14.9832 14.2259C16.0264 13.8782 16.4746 12.6573 15.9105 11.7145L14.9291 10.0764C14.6587 9.62818 14.4423 8.83227 14.4423 8.31455V6.69182C14.4346 3.86364 12.1164 1.54546 9.28821 1.54546Z" stroke="#CB9E4B" stroke-width="1.15909" stroke-miterlimit="10" stroke-linecap="round"/>
<path d="M11.8459 14.5427C11.8459 15.9568 10.6868 17.1159 9.27271 17.1159C8.56952 17.1159 7.92043 16.8223 7.4568 16.3586C6.99316 15.895 6.69952 15.2459 6.69952 14.5427" stroke="#CB9E4B" stroke-width="1.15909" stroke-miterlimit="10"/>
</svg>
