<svg width="24" height="12" viewBox="0 0 24 12" fill="none" xmlns="http://www.w3.org/2000/svg">
<path d="M18.5035 0C17.6592 0 17.2745 1.05367 17.9203 1.59765C18.3496 1.95936 18.3496 2.62064 17.9203 2.98236L15.3226 5.17067C13.9513 6.32591 11.9474 6.32591 10.5761 5.17067C9.20408 4.01484 7.19892 4.01551 5.82767 5.17225L0.383412 9.76487C-0.127732 10.1961 -0.127471 10.9836 0.383959 11.4145C0.78556 11.7528 1.37243 11.7528 1.77403 11.4145L5.8262 8.00079C7.19852 6.84471 9.20392 6.84471 10.5762 8.00079C11.9477 9.15618 13.9517 9.15696 15.3241 8.00265L19.6624 4.35372C20.1047 3.9817 20.7505 3.98195 21.1925 4.35432C21.9652 5.0052 23.146 4.45596 23.146 3.44571V1.90477C23.146 0.852795 22.2932 0 21.2412 0H18.5035Z" fill="#176F05"/>
</svg>
