<svg width="29" height="24" viewBox="0 0 29 24" fill="none" xmlns="http://www.w3.org/2000/svg">
<path d="M21.4723 6C20.628 6 20.2433 7.05367 20.8891 7.59765C21.3184 7.95936 21.3184 8.62064 20.8891 8.98236L18.2915 11.1707C16.9201 12.3259 14.9162 12.3259 13.5449 11.1707C12.1729 10.0148 10.1677 10.0155 8.79648 11.1723L3.35222 15.7649C2.84108 16.1961 2.84134 16.9836 3.35277 17.4145C3.75437 17.7528 4.34124 17.7528 4.74284 17.4145L8.79501 14.0008C10.1673 12.8447 12.1727 12.8447 13.545 14.0008C14.9165 15.1562 16.9205 15.157 18.2929 14.0027L22.6312 10.3537C23.0735 9.9817 23.7193 9.98195 24.1613 10.3543C24.934 11.0052 26.1148 10.456 26.1148 9.44571V7.90477C26.1148 6.85279 25.262 6 24.2101 6H21.4723Z" fill="#176F05"/>
</svg>
